<svg version="1.1" id="Layer_1" xmlns="http://www.w3.org/2000/svg" xmlns:xlink="http://www.w3.org/1999/xlink" x="0px" y="0px"
	 width="100%" viewBox="0 0 680 157" enable-background="new 0 0 680 157" xml:space="preserve">
<path fill="#FDFDFD" opacity="1.000000" stroke="none" 
	d="
M503.000000,158.000000 
	C335.333344,158.000000 168.166702,158.000000 1.000045,158.000000 
	C1.000030,105.666695 1.000030,53.333385 1.000015,1.000059 
	C227.666611,1.000039 454.333221,1.000039 680.999878,1.000020 
	C680.999878,53.333271 680.999878,105.666542 680.999939,157.999908 
	C621.833313,158.000000 562.666687,158.000000 503.000000,158.000000 
M40.350883,132.166718 
	C56.509605,131.437042 66.245682,123.632538 68.724564,109.422188 
	C71.310387,94.598816 65.963257,85.366257 51.252991,79.449287 
	C51.855965,79.019882 52.337261,78.495369 52.930542,78.281494 
	C64.363853,74.159691 67.422653,63.078018 66.699654,54.715130 
	C65.682030,42.944252 59.836227,34.906185 48.277660,32.928082 
	C37.108826,31.016672 25.575136,31.237247 14.140558,30.517458 
	C14.140558,65.143585 14.140558,98.543793 14.140558,132.170029 
	C22.761868,132.170029 31.074139,132.170029 40.350883,132.166718 
M595.734253,109.762642 
	C593.217957,102.066925 590.701660,94.371201 588.215576,86.767960 
	C601.299744,77.504852 605.648865,59.831539 598.710510,45.316505 
	C595.394836,38.380238 589.999023,33.385281 582.574463,32.517170 
	C571.277710,31.196312 559.822815,31.227184 548.361084,30.680437 
	C548.361084,65.178810 548.361084,98.569878 548.361084,131.959686 
	C553.600952,131.959686 558.541077,131.959686 563.999634,131.959686 
	C563.999634,118.202370 563.999634,104.648285 563.999634,91.135788 
	C573.131714,90.667709 573.132629,90.667412 575.689453,98.586990 
	C579.292603,109.747467 582.894226,120.908440 586.484558,132.032181 
	C592.034851,132.032181 597.172180,132.032181 602.817139,132.032181 
	C600.477234,124.682259 598.223083,117.601593 595.734253,109.762642 
M531.092651,77.459930 
	C536.102783,68.116272 536.285889,58.334579 533.311523,48.446651 
	C530.638367,39.560261 524.430786,33.345272 515.391174,32.440605 
	C504.420319,31.342665 493.255798,32.179958 481.931396,32.179958 
	C481.931396,65.028984 481.931396,98.393906 481.931396,131.914581 
	C487.048767,131.914581 491.940887,131.914581 497.369904,131.914581 
	C497.369904,118.141159 497.369904,104.613907 497.369904,91.135468 
	C506.447754,90.641487 506.465698,90.635620 509.068268,98.597313 
	C512.366699,108.688042 515.553040,118.816795 519.007263,128.853561 
	C519.465820,130.185989 521.142090,131.911331 522.378418,132.018143 
	C526.817871,132.401642 531.310608,132.168594 536.358643,132.168594 
	C531.363525,116.729469 526.529602,101.788383 522.134338,88.203239 
	C525.405151,84.389793 528.089661,81.259895 531.092651,77.459930 
M307.141144,99.399734 
	C310.685333,109.238884 314.152527,119.107269 317.863861,128.882965 
	C318.370331,130.216980 320.029388,131.927902 321.267670,132.024979 
	C325.981689,132.394562 330.741943,132.174042 335.983673,132.174042 
	C328.187103,111.698013 320.680847,91.846153 313.032227,72.049316 
	C311.914185,69.155518 312.038483,66.937973 313.718262,64.196991 
	C319.616699,54.572071 325.185608,44.744774 330.843597,34.973457 
	C331.457306,33.913616 331.836945,32.718250 332.508728,31.159883 
	C330.285706,31.159883 328.599457,31.419556 327.021484,31.116154 
	C319.038910,29.581327 313.859680,32.482067 311.155914,40.264034 
	C310.077911,43.366768 308.177704,46.190372 306.593628,49.109474 
	C302.632629,56.408718 298.638367,63.689907 294.657440,70.978340 
	C294.298859,70.871269 293.940308,70.764198 293.581726,70.657127 
	C293.581726,57.599030 293.581726,44.540928 293.581726,31.410332 
	C288.160278,31.410332 283.242584,31.410332 278.167297,31.410332 
	C278.167297,65.056183 278.167297,98.451248 278.167297,131.962921 
	C283.340393,131.962921 288.266052,131.962921 293.707611,131.962921 
	C293.707611,123.808647 294.410706,115.776939 293.524017,107.924744 
	C292.489227,98.760773 297.374817,92.452637 301.881897,84.813492 
	C303.765564,89.956573 305.355469,94.297531 307.141144,99.399734 
M182.686401,122.840164 
	C183.275085,125.886986 183.863770,128.933823 184.428024,131.854248 
	C189.950439,131.854248 195.014664,131.854248 200.436890,131.854248 
	C193.609558,98.117500 186.858673,64.758553 180.059784,31.162369 
	C173.952850,31.162369 168.137985,31.334896 162.340607,31.091328 
	C159.333984,30.965008 158.425323,32.079903 157.898071,34.907257 
	C154.091797,55.318390 150.077530,75.690643 146.164932,96.082085 
	C143.888535,107.946045 141.678253,119.822685 139.405914,131.864868 
	C144.793991,131.864868 149.708328,131.864868 154.600616,131.864868 
	C156.026138,124.456284 157.393997,117.347382 158.750198,110.299011 
	C166.129745,110.299011 172.939102,110.299011 180.082047,110.299011 
	C180.876968,114.240952 181.661285,118.130234 182.686401,122.840164 
M248.128174,108.319794 
	C245.936096,116.389427 242.585571,119.364174 236.061432,119.033173 
	C229.922409,118.721710 226.130646,115.253242 225.832977,107.220802 
	C225.210663,90.427605 225.408752,73.603424 225.332138,56.791687 
	C225.326187,55.486153 225.714417,54.151791 226.078613,52.876266 
	C227.657425,47.346783 231.065155,44.620308 236.424591,44.509686 
	C241.964203,44.395344 245.418503,46.686382 247.081802,52.353699 
	C248.176666,56.084202 248.522903,60.034420 249.176498,63.728733 
	C254.278625,63.728733 259.189484,63.728733 264.026215,63.728733 
	C264.026215,60.886189 264.172150,58.379738 264.002533,55.894825 
	C262.884399,39.511803 252.381241,29.812578 235.969620,29.925377 
	C220.303238,30.033052 210.488892,39.405941 209.997009,55.949917 
	C209.492554,72.916405 209.552444,89.918434 209.982239,106.889282 
	C210.542465,129.009781 227.737534,137.167389 246.285614,132.550476 
	C258.587860,129.488220 266.375519,115.529312 264.178894,97.198784 
	C259.138977,97.198784 254.101120,97.198784 249.356659,97.198784 
	C248.955933,100.890320 248.598145,104.186249 248.128174,108.319794 
M470.053741,45.707699 
	C470.437469,40.925972 470.821198,36.144245 471.197540,31.454874 
	C455.254852,31.454874 440.340637,31.454874 425.328979,31.454874 
	C425.328979,65.130882 425.328979,98.508766 425.328979,131.824036 
	C440.639404,131.824036 455.678802,131.824036 470.669312,131.824036 
	C470.669312,127.049454 470.669312,122.633209 470.669312,117.809334 
	C460.664612,117.809334 450.919464,117.809334 441.092987,117.809334 
	C441.092987,107.323425 441.092987,97.256409 441.092987,86.795364 
	C448.414459,86.795364 455.497498,86.795364 462.632202,86.795364 
	C462.632202,81.700684 462.632202,77.008698 462.632202,71.921432 
	C455.184570,71.921432 448.107178,71.921432 441.064392,71.921432 
	C441.064392,63.091358 441.064392,54.668083 441.064392,45.830608 
	C450.560699,45.830608 459.841003,45.830608 470.053741,45.707699 
M633.711609,132.174271 
	C637.990601,132.174271 642.269653,132.174271 646.935730,132.174271 
	C646.935730,127.568756 647.226135,123.420372 646.885620,119.324440 
	C645.396667,101.414337 648.081299,84.305153 656.159485,68.149841 
	C656.381348,67.706085 656.588074,67.251892 656.763245,66.787994 
	C661.195435,55.048977 665.622559,43.308041 670.204590,31.158884 
	C665.631714,31.158884 661.643372,31.398413 657.698730,31.085794 
	C654.327026,30.818583 652.843933,31.872288 651.809265,35.240047 
	C647.965393,47.751110 643.710510,60.135895 639.204712,73.796906 
	C634.421021,58.749729 630.030945,44.940735 625.698792,31.313873 
	C619.804382,31.313873 614.514221,31.313873 608.846497,31.313873 
	C609.232056,32.628666 609.485657,33.715565 609.865845,34.756229 
	C613.736084,45.348965 617.141968,56.144424 621.621094,66.474136 
	C629.083496,83.683800 633.032959,101.338028 631.201965,120.142365 
	C630.896912,123.275330 631.047791,126.470329 631.234253,129.622086 
	C631.285828,130.493607 632.224548,131.312637 633.711609,132.174271 
M381.154694,68.500000 
	C381.154694,89.586998 381.154694,110.673996 381.154694,131.811523 
	C386.687836,131.811523 391.714844,131.811523 397.046082,131.811523 
	C397.046082,103.047501 397.046082,74.650742 397.046082,45.808182 
	C403.573151,45.808182 409.804504,45.808182 416.257507,45.808182 
	C416.257507,40.776752 416.257507,36.194538 416.257507,31.504642 
	C397.984558,31.504642 379.974243,31.504642 362.033417,31.504642 
	C362.033417,36.425880 362.033417,40.990292 362.033417,46.048286 
	C368.596466,46.048286 374.823914,46.048286 381.154694,46.048286 
	C381.154694,53.537449 381.154694,60.518749 381.154694,68.500000 
M98.492073,106.455383 
	C98.492073,81.524132 98.492073,56.592884 98.492073,31.423454 
	C93.115746,31.423454 88.219238,31.423454 83.155930,31.423454 
	C83.155930,65.051155 83.155930,98.423630 83.155930,131.789658 
	C98.732323,131.789658 114.078949,131.789658 129.388245,131.789658 
	C129.388245,126.996178 129.388245,122.585983 129.388245,117.763161 
	C119.011307,117.763161 108.937340,117.763161 98.492104,117.763161 
	C98.492104,114.044174 98.492104,110.739975 98.492073,106.455383 
z"/>
<path fill="#030303" opacity="1.000000" stroke="none" 
	d="
M39.868645,132.168365 
	C31.074139,132.170029 22.761868,132.170029 14.140558,132.170029 
	C14.140558,98.543793 14.140558,65.143585 14.140558,30.517458 
	C25.575136,31.237247 37.108826,31.016672 48.277660,32.928082 
	C59.836227,34.906185 65.682030,42.944252 66.699654,54.715130 
	C67.422653,63.078018 64.363853,74.159691 52.930542,78.281494 
	C52.337261,78.495369 51.855965,79.019882 51.252991,79.449287 
	C65.963257,85.366257 71.310387,94.598816 68.724564,109.422188 
	C66.245682,123.632538 56.509605,131.437042 39.868645,132.168365 
M32.768181,117.942139 
	C35.417416,117.852516 38.104313,118.015251 40.708900,117.626488 
	C48.901157,116.403725 53.479187,110.556374 52.926811,102.330849 
	C52.168236,91.034821 42.742897,84.938644 29.471369,87.466942 
	C29.471369,96.656830 29.403433,105.922249 29.575750,115.183197 
	C29.593109,116.116219 31.063515,117.022194 32.768181,117.942139 
M44.367691,70.059700 
	C50.443470,65.413986 52.531910,58.735157 49.809929,52.655418 
	C47.174137,46.768181 39.249039,44.333515 29.806217,46.495651 
	C29.806217,55.026855 29.806217,63.547916 29.806217,73.129364 
	C34.780350,72.149780 39.232941,71.272903 44.367691,70.059700 
z"/>
<path fill="#040404" opacity="1.000000" stroke="none" 
	d="
M595.851562,110.141785 
	C598.223083,117.601593 600.477234,124.682259 602.817139,132.032181 
	C597.172180,132.032181 592.034851,132.032181 586.484558,132.032181 
	C582.894226,120.908440 579.292603,109.747467 575.689453,98.586990 
	C573.132629,90.667412 573.131714,90.667709 563.999634,91.135788 
	C563.999634,104.648285 563.999634,118.202370 563.999634,131.959686 
	C558.541077,131.959686 553.600952,131.959686 548.361084,131.959686 
	C548.361084,98.569878 548.361084,65.178810 548.361084,30.680437 
	C559.822815,31.227184 571.277710,31.196312 582.574463,32.517170 
	C589.999023,33.385281 595.394836,38.380238 598.710510,45.316505 
	C605.648865,59.831539 601.299744,77.504852 588.215576,86.767960 
	C590.701660,94.371201 593.217957,102.066925 595.851562,110.141785 
M563.931213,51.565350 
	C563.931213,59.781376 563.931213,67.997398 563.931213,76.166878 
	C581.264587,76.741699 586.335815,72.848778 585.652832,60.091885 
	C585.008850,48.062824 579.537598,44.501305 563.931213,46.280422 
	C563.931213,47.676701 563.931213,49.127914 563.931213,51.565350 
z"/>
<path fill="#020202" opacity="1.000000" stroke="none" 
	d="
M530.933350,77.794968 
	C528.089661,81.259895 525.405151,84.389793 522.134338,88.203239 
	C526.529602,101.788383 531.363525,116.729469 536.358643,132.168594 
	C531.310608,132.168594 526.817871,132.401642 522.378418,132.018143 
	C521.142090,131.911331 519.465820,130.185989 519.007263,128.853561 
	C515.553040,118.816795 512.366699,108.688042 509.068268,98.597313 
	C506.465698,90.635620 506.447754,90.641487 497.369904,91.135468 
	C497.369904,104.613907 497.369904,118.141159 497.369904,131.914581 
	C491.940887,131.914581 487.048767,131.914581 481.931396,131.914581 
	C481.931396,98.393906 481.931396,65.028984 481.931396,32.179958 
	C493.255798,32.179958 504.420319,31.342665 515.391174,32.440605 
	C524.430786,33.345272 530.638367,39.560261 533.311523,48.446651 
	C536.285889,58.334579 536.102783,68.116272 530.933350,77.794968 
M517.526550,69.711250 
	C518.001343,65.800278 518.984558,61.868580 518.826172,57.983406 
	C518.613159,52.756786 516.486206,47.882969 510.900818,46.586342 
	C506.559784,45.578583 501.897919,45.952572 497.400269,45.713589 
	C497.400269,56.363449 497.400269,66.096100 497.400269,76.268295 
	C500.415070,76.268295 503.195465,76.324417 505.972839,76.255699 
	C510.640442,76.140221 514.923340,75.218781 517.526550,69.711250 
z"/>
<path fill="#050505" opacity="1.000000" stroke="none" 
	d="
M307.043243,99.019112 
	C305.355469,94.297531 303.765564,89.956573 301.881897,84.813492 
	C297.374817,92.452637 292.489227,98.760773 293.524017,107.924744 
	C294.410706,115.776939 293.707611,123.808647 293.707611,131.962921 
	C288.266052,131.962921 283.340393,131.962921 278.167297,131.962921 
	C278.167297,98.451248 278.167297,65.056183 278.167297,31.410332 
	C283.242584,31.410332 288.160278,31.410332 293.581726,31.410332 
	C293.581726,44.540928 293.581726,57.599030 293.581726,70.657127 
	C293.940308,70.764198 294.298859,70.871269 294.657440,70.978340 
	C298.638367,63.689907 302.632629,56.408718 306.593628,49.109474 
	C308.177704,46.190372 310.077911,43.366768 311.155914,40.264034 
	C313.859680,32.482067 319.038910,29.581327 327.021484,31.116154 
	C328.599457,31.419556 330.285706,31.159883 332.508728,31.159883 
	C331.836945,32.718250 331.457306,33.913616 330.843597,34.973457 
	C325.185608,44.744774 319.616699,54.572071 313.718262,64.196991 
	C312.038483,66.937973 311.914185,69.155518 313.032227,72.049316 
	C320.680847,91.846153 328.187103,111.698013 335.983673,132.174042 
	C330.741943,132.174042 325.981689,132.394562 321.267670,132.024979 
	C320.029388,131.927902 318.370331,130.216980 317.863861,128.882965 
	C314.152527,119.107269 310.685333,109.238884 307.043243,99.019112 
z"/>
<path fill="#040404" opacity="1.000000" stroke="none" 
	d="
M182.566010,122.429840 
	C181.661285,118.130234 180.876968,114.240952 180.082047,110.299011 
	C172.939102,110.299011 166.129745,110.299011 158.750198,110.299011 
	C157.393997,117.347382 156.026138,124.456284 154.600616,131.864868 
	C149.708328,131.864868 144.793991,131.864868 139.405914,131.864868 
	C141.678253,119.822685 143.888535,107.946045 146.164932,96.082085 
	C150.077530,75.690643 154.091797,55.318390 157.898071,34.907257 
	C158.425323,32.079903 159.333984,30.965008 162.340607,31.091328 
	C168.137985,31.334896 173.952850,31.162369 180.059784,31.162369 
	C186.858673,64.758553 193.609558,98.117500 200.436890,131.854248 
	C195.014664,131.854248 189.950439,131.854248 184.428024,131.854248 
	C183.863770,128.933823 183.275085,125.886986 182.566010,122.429840 
M162.165558,89.596405 
	C161.898392,91.559334 161.631226,93.522263 161.339722,95.663925 
	C166.660767,95.663925 171.874619,95.663925 177.482178,95.663925 
	C174.886841,81.554695 172.353668,67.783386 169.820496,54.012085 
	C169.445175,53.985146 169.069870,53.958206 168.694565,53.931267 
	C166.585663,65.546204 164.476761,77.161148 162.165558,89.596405 
z"/>
<path fill="#030303" opacity="1.000000" stroke="none" 
	d="
M248.184265,107.900986 
	C248.598145,104.186249 248.955933,100.890320 249.356659,97.198784 
	C254.101120,97.198784 259.138977,97.198784 264.178894,97.198784 
	C266.375519,115.529312 258.587860,129.488220 246.285614,132.550476 
	C227.737534,137.167389 210.542465,129.009781 209.982239,106.889282 
	C209.552444,89.918434 209.492554,72.916405 209.997009,55.949917 
	C210.488892,39.405941 220.303238,30.033052 235.969620,29.925377 
	C252.381241,29.812578 262.884399,39.511803 264.002533,55.894825 
	C264.172150,58.379738 264.026215,60.886189 264.026215,63.728733 
	C259.189484,63.728733 254.278625,63.728733 249.176498,63.728733 
	C248.522903,60.034420 248.176666,56.084202 247.081802,52.353699 
	C245.418503,46.686382 241.964203,44.395344 236.424591,44.509686 
	C231.065155,44.620308 227.657425,47.346783 226.078613,52.876266 
	C225.714417,54.151791 225.326187,55.486153 225.332138,56.791687 
	C225.408752,73.603424 225.210663,90.427605 225.832977,107.220802 
	C226.130646,115.253242 229.922409,118.721710 236.061432,119.033173 
	C242.585571,119.364174 245.936096,116.389427 248.184265,107.900986 
z"/>
<path fill="#050505" opacity="1.000000" stroke="none" 
	d="
M469.587524,45.769154 
	C459.841003,45.830608 450.560699,45.830608 441.064392,45.830608 
	C441.064392,54.668083 441.064392,63.091358 441.064392,71.921432 
	C448.107178,71.921432 455.184570,71.921432 462.632202,71.921432 
	C462.632202,77.008698 462.632202,81.700684 462.632202,86.795364 
	C455.497498,86.795364 448.414459,86.795364 441.092987,86.795364 
	C441.092987,97.256409 441.092987,107.323425 441.092987,117.809334 
	C450.919464,117.809334 460.664612,117.809334 470.669312,117.809334 
	C470.669312,122.633209 470.669312,127.049454 470.669312,131.824036 
	C455.678802,131.824036 440.639404,131.824036 425.328979,131.824036 
	C425.328979,98.508766 425.328979,65.130882 425.328979,31.454874 
	C440.340637,31.454874 455.254852,31.454874 471.197540,31.454874 
	C470.821198,36.144245 470.437469,40.925972 469.587524,45.769154 
z"/>
<path fill="#050505" opacity="1.000000" stroke="none" 
	d="
M633.233887,132.165009 
	C632.224548,131.312637 631.285828,130.493607 631.234253,129.622086 
	C631.047791,126.470329 630.896912,123.275330 631.201965,120.142365 
	C633.032959,101.338028 629.083496,83.683800 621.621094,66.474136 
	C617.141968,56.144424 613.736084,45.348965 609.865845,34.756229 
	C609.485657,33.715565 609.232056,32.628666 608.846497,31.313873 
	C614.514221,31.313873 619.804382,31.313873 625.698792,31.313873 
	C630.030945,44.940735 634.421021,58.749729 639.204712,73.796906 
	C643.710510,60.135895 647.965393,47.751110 651.809265,35.240047 
	C652.843933,31.872288 654.327026,30.818583 657.698730,31.085794 
	C661.643372,31.398413 665.631714,31.158884 670.204590,31.158884 
	C665.622559,43.308041 661.195435,55.048977 656.763245,66.787994 
	C656.588074,67.251892 656.381348,67.706085 656.159485,68.149841 
	C648.081299,84.305153 645.396667,101.414337 646.885620,119.324440 
	C647.226135,123.420372 646.935730,127.568756 646.935730,132.174271 
	C642.269653,132.174271 637.990601,132.174271 633.233887,132.165009 
z"/>
<path fill="#060606" opacity="1.000000" stroke="none" 
	d="
M381.154694,68.000023 
	C381.154694,60.518749 381.154694,53.537449 381.154694,46.048286 
	C374.823914,46.048286 368.596466,46.048286 362.033417,46.048286 
	C362.033417,40.990292 362.033417,36.425880 362.033417,31.504642 
	C379.974243,31.504642 397.984558,31.504642 416.257507,31.504642 
	C416.257507,36.194538 416.257507,40.776752 416.257507,45.808182 
	C409.804504,45.808182 403.573151,45.808182 397.046082,45.808182 
	C397.046082,74.650742 397.046082,103.047501 397.046082,131.811523 
	C391.714844,131.811523 386.687836,131.811523 381.154694,131.811523 
	C381.154694,110.673996 381.154694,89.586998 381.154694,68.000023 
z"/>
<path fill="#010101" opacity="1.000000" stroke="none" 
	d="
M98.492088,106.945580 
	C98.492104,110.739975 98.492104,114.044174 98.492104,117.763161 
	C108.937340,117.763161 119.011307,117.763161 129.388245,117.763161 
	C129.388245,122.585983 129.388245,126.996178 129.388245,131.789658 
	C114.078949,131.789658 98.732323,131.789658 83.155930,131.789658 
	C83.155930,98.423630 83.155930,65.051155 83.155930,31.423454 
	C88.219238,31.423454 93.115746,31.423454 98.492073,31.423454 
	C98.492073,56.592884 98.492073,81.524132 98.492088,106.945580 
z"/>
<path fill="#F6F6F6" opacity="1.000000" stroke="none" 
	d="
M32.313885,117.941429 
	C31.063515,117.022194 29.593109,116.116219 29.575750,115.183197 
	C29.403433,105.922249 29.471369,96.656830 29.471369,87.466942 
	C42.742897,84.938644 52.168236,91.034821 52.926811,102.330849 
	C53.479187,110.556374 48.901157,116.403725 40.708900,117.626488 
	C38.104313,118.015251 35.417416,117.852516 32.313885,117.941429 
z"/>
<path fill="#F5F5F5" opacity="1.000000" stroke="none" 
	d="
M44.026611,70.227867 
	C39.232941,71.272903 34.780350,72.149780 29.806217,73.129364 
	C29.806217,63.547916 29.806217,55.026855 29.806217,46.495651 
	C39.249039,44.333515 47.174137,46.768181 49.809929,52.655418 
	C52.531910,58.735157 50.443470,65.413986 44.026611,70.227867 
z"/>
<path fill="#FCFCFC" opacity="1.000000" stroke="none" 
	d="
M563.931213,51.072243 
	C563.931213,49.127914 563.931213,47.676701 563.931213,46.280422 
	C579.537598,44.501305 585.008850,48.062824 585.652832,60.091885 
	C586.335815,72.848778 581.264587,76.741699 563.931213,76.166878 
	C563.931213,67.997398 563.931213,59.781376 563.931213,51.072243 
z"/>
<path fill="#F9F9F9" opacity="1.000000" stroke="none" 
	d="
M517.328613,70.050552 
	C514.923340,75.218781 510.640442,76.140221 505.972839,76.255699 
	C503.195465,76.324417 500.415070,76.268295 497.400269,76.268295 
	C497.400269,66.096100 497.400269,56.363449 497.400269,45.713589 
	C501.897919,45.952572 506.559784,45.578583 510.900818,46.586342 
	C516.486206,47.882969 518.613159,52.756786 518.826172,57.983406 
	C518.984558,61.868580 518.001343,65.800278 517.328613,70.050552 
z"/>
<path fill="#F6F6F6" opacity="1.000000" stroke="none" 
	d="
M162.266708,89.186249 
	C164.476761,77.161148 166.585663,65.546204 168.694565,53.931267 
	C169.069870,53.958206 169.445175,53.985146 169.820496,54.012085 
	C172.353668,67.783386 174.886841,81.554695 177.482178,95.663925 
	C171.874619,95.663925 166.660767,95.663925 161.339722,95.663925 
	C161.631226,93.522263 161.898392,91.559334 162.266708,89.186249 
z"/>
</svg>